<?xml version="1.0" encoding="UTF-8" standalone="no"?>
<!-- Generator: Adobe Illustrator 15.0.0, SVG Export Plug-In . SVG Version: 6.00 Build 0)  -->

<svg
   xmlns:dc="http://purl.org/dc/elements/1.1/"
   xmlns:cc="http://creativecommons.org/ns#"
   xmlns:rdf="http://www.w3.org/1999/02/22-rdf-syntax-ns#"
   xmlns:svg="http://www.w3.org/2000/svg"
   xmlns="http://www.w3.org/2000/svg"
   xmlns:xlink="http://www.w3.org/1999/xlink"
   xmlns:sodipodi="http://sodipodi.sourceforge.net/DTD/sodipodi-0.dtd"
   xmlns:inkscape="http://www.inkscape.org/namespaces/inkscape"
   version="1.1"
   x="0px"
   y="0px"
   width="500mm"
   height="500mm"
   viewBox="0 0 500 500"
   enable-background="new 0 0 1417.322 1417.323"
   xml:space="preserve"
   id="svg12625"
   sodipodi:docname="Extruded clear acrylic 2mm 500mmx500mm INNER_HOLDERS.svg"
   inkscape:version="0.92.2 5c3e80d, 2017-08-06"><metadata
     id="metadata12631"><rdf:RDF><cc:Work
         rdf:about=""><dc:format>image/svg+xml</dc:format><dc:type
           rdf:resource="http://purl.org/dc/dcmitype/StillImage" /><dc:title /></cc:Work></rdf:RDF></metadata><defs
     id="defs12629"><color-profile
       name="Adobe-RGB--1998-"
       xlink:href="/System/Library/ColorSync/Profiles/AdobeRGB1998.icc"
       id="color-profile3" /></defs><sodipodi:namedview
     pagecolor="#ffffff"
     bordercolor="#666666"
     borderopacity="1"
     objecttolerance="10"
     gridtolerance="10"
     guidetolerance="10"
     inkscape:pageopacity="0"
     inkscape:pageshadow="2"
     inkscape:window-width="1680"
     inkscape:window-height="1006"
     id="namedview12627"
     showgrid="false"
     inkscape:measure-start="1149.29,752.586"
     inkscape:measure-end="1390.22,752.586"
     inkscape:zoom="0.37676726"
     inkscape:cx="1054.9544"
     inkscape:cy="874.48878"
     inkscape:window-x="-1"
     inkscape:window-y="0"
     inkscape:window-maximized="0"
     inkscape:current-layer="svg12625"
     units="mm"
     inkscape:document-units="mm" /><g
     id="Your_drawing"
     transform="translate(0,472.44088)" /><path
     style="display:inline;fill:none;fill-opacity:1;stroke:#ff0000;stroke-width:0.01024326;stroke-miterlimit:4;stroke-dasharray:none;stroke-opacity:1"
     d="M 430.24724,305.70664 H 457.237 v 159.98975 h -26.98976 z"
     id="path906"
     inkscape:connector-curvature="0" /><path
     style="display:inline;fill:none;fill-opacity:1;stroke:#ff0000;stroke-width:0.01029628;stroke-miterlimit:4;stroke-dasharray:none;stroke-opacity:1"
     d="m 384.77668,394.17176 h 27.9897 v 70.9897 h -27.9897 z"
     id="path908"
     inkscape:connector-curvature="0" /><path
     style="display:inline;fill:none;fill-opacity:1;stroke:#ff0000;stroke-width:0.01;stroke-linecap:butt;stroke-linejoin:miter;stroke-miterlimit:4;stroke-dasharray:none;stroke-opacity:1"
     d="m 373.98413,288.59266 v 7 h 71 v -7 z"
     id="path910"
     inkscape:connector-curvature="0"
     sodipodi:nodetypes="ccccc" /><path
     sodipodi:nodetypes="ccccc"
     inkscape:connector-curvature="0"
     id="path912"
     d="m 339.01772,325.12878 v 7 h 71 v -7 z"
     style="display:inline;fill:none;fill-opacity:1;stroke:#ff0000;stroke-width:0.01;stroke-linecap:butt;stroke-linejoin:miter;stroke-miterlimit:4;stroke-dasharray:none;stroke-opacity:1" /><path
     style="display:inline;fill:none;fill-opacity:1;stroke:#ff0000;stroke-width:0.01;stroke-linecap:butt;stroke-linejoin:miter;stroke-miterlimit:4;stroke-dasharray:none;stroke-opacity:1"
     d="m 304.05133,361.66496 v 7 h 71 v -7 z"
     id="path914"
     inkscape:connector-curvature="0"
     sodipodi:nodetypes="ccccc" /><path
     sodipodi:nodetypes="ccccc"
     inkscape:connector-curvature="0"
     id="path916"
     d="m 269.08495,398.20112 v 7 h 71 v -7 z"
     style="display:inline;fill:none;fill-opacity:1;stroke:#ff0000;stroke-width:0.01;stroke-linecap:butt;stroke-linejoin:miter;stroke-miterlimit:4;stroke-dasharray:none;stroke-opacity:1" /><path
     style="display:inline;fill:none;fill-opacity:1;stroke:#ff0000;stroke-width:0.01;stroke-linecap:butt;stroke-linejoin:miter;stroke-miterlimit:4;stroke-dasharray:none;stroke-opacity:1"
     d="m 234.11855,434.73727 v 7 h 71 v -7 z"
     id="path918"
     inkscape:connector-curvature="0"
     sodipodi:nodetypes="ccccc" /><path
     style="fill:none;stroke:#ff0000;stroke-width:0.01;stroke-linecap:butt;stroke-linejoin:miter;stroke-miterlimit:4;stroke-dasharray:none;stroke-opacity:1"
     d="M 139.45193,486.84409 V 466.844 h -4.99995 v -20 h 4.99995 V 426.73574 L 309.45042,256.844 h 169.9985 l 8e-5,20 h 4.99987 v 30 H 479.449 v 50 h 4.99987 l 1.3e-4,30 h -5 v 50 h 4.99987 v 30 h -4.99995 v 20.00009 z"
     id="path920"
     inkscape:connector-curvature="0"
     sodipodi:nodetypes="cccccccccccccccccccccc" /><path
     sodipodi:nodetypes="ccccccccccccccc"
     inkscape:connector-curvature="0"
     id="path922"
     d="m 363.01518,302.50537 v -20 h -62 v 20 h 3.49934 v -2 h 2 l 0.05,1.95129 8.45066,8.04871 h 34 l 8.50034,-8 v -2 h 2 v 2 z"
     style="fill:none;fill-opacity:1;stroke:#ff0000;stroke-width:0.01;stroke-linecap:butt;stroke-linejoin:miter;stroke-miterlimit:4;stroke-dasharray:none;stroke-opacity:1" /><path
     style="fill:none;fill-opacity:1;stroke:#ff0000;stroke-width:0.01;stroke-linecap:butt;stroke-linejoin:miter;stroke-miterlimit:4;stroke-dasharray:none;stroke-opacity:1"
     d="m 219.05473,449.27482 v -20 h -62 v 20 h 3.49934 v -2 h 2 l 0.05,1.95129 8.45066,8.04871 h 34 l 8.50034,-8 v -2 h 2 v 2 z"
     id="path886"
     inkscape:connector-curvature="0"
     sodipodi:nodetypes="ccccccccccccccc" /><path
     sodipodi:nodetypes="ccccccccccccccc"
     inkscape:connector-curvature="0"
     id="path888"
     d="m 255.04484,412.58246 v -20 h -62 v 20 h 3.49934 v -2 h 2 l 0.05,1.95129 8.45066,8.04871 h 34 l 8.50034,-8 v -2 h 2 v 2 z"
     style="fill:none;fill-opacity:1;stroke:#ff0000;stroke-width:0.01;stroke-linecap:butt;stroke-linejoin:miter;stroke-miterlimit:4;stroke-dasharray:none;stroke-opacity:1" /><path
     style="fill:none;fill-opacity:1;stroke:#ff0000;stroke-width:0.01;stroke-linecap:butt;stroke-linejoin:miter;stroke-miterlimit:4;stroke-dasharray:none;stroke-opacity:1"
     d="m 291.03496,375.89011 v -20 h -62 v 20 h 3.49934 v -2 h 2 l 0.05,1.95129 8.45066,8.04871 h 34 l 8.50034,-8 v -2 h 2 v 2 z"
     id="path890"
     inkscape:connector-curvature="0"
     sodipodi:nodetypes="ccccccccccccccc" /><path
     sodipodi:nodetypes="ccccccccccccccc"
     inkscape:connector-curvature="0"
     id="path892"
     d="m 327.02508,339.19774 v -20 h -62 v 20 h 3.49934 v -2 h 2 l 0.05,1.95129 8.45066,8.04871 h 34 l 8.50034,-8 v -2 h 2 v 2 z"
     style="fill:none;fill-opacity:1;stroke:#ff0000;stroke-width:0.01;stroke-linecap:butt;stroke-linejoin:miter;stroke-miterlimit:4;stroke-dasharray:none;stroke-opacity:1" /><path
     inkscape:connector-curvature="0"
     id="path894"
     d="M 430.24724,63.768367 H 457.237 V 223.75812 h -26.98976 z"
     style="display:inline;fill:none;fill-opacity:1;stroke:#ff0000;stroke-width:0.01024326;stroke-miterlimit:4;stroke-dasharray:none;stroke-opacity:1" /><path
     inkscape:connector-curvature="0"
     id="path896"
     d="m 384.77668,152.23349 h 27.9897 v 70.9897 h -27.9897 z"
     style="display:inline;fill:none;fill-opacity:1;stroke:#ff0000;stroke-width:0.01029628;stroke-miterlimit:4;stroke-dasharray:none;stroke-opacity:1" /><path
     sodipodi:nodetypes="ccccc"
     inkscape:connector-curvature="0"
     id="path898"
     d="m 373.98413,46.654387 v 7 h 71 v -7 z"
     style="display:inline;fill:none;fill-opacity:1;stroke:#ff0000;stroke-width:0.01;stroke-linecap:butt;stroke-linejoin:miter;stroke-miterlimit:4;stroke-dasharray:none;stroke-opacity:1" /><path
     style="display:inline;fill:none;fill-opacity:1;stroke:#ff0000;stroke-width:0.01;stroke-linecap:butt;stroke-linejoin:miter;stroke-miterlimit:4;stroke-dasharray:none;stroke-opacity:1"
     d="m 339.01772,83.190507 v 7 h 71 v -7 z"
     id="path900"
     inkscape:connector-curvature="0"
     sodipodi:nodetypes="ccccc" /><path
     sodipodi:nodetypes="ccccc"
     inkscape:connector-curvature="0"
     id="path902"
     d="m 304.05133,119.72669 v 7 h 71 v -7 z"
     style="display:inline;fill:none;fill-opacity:1;stroke:#ff0000;stroke-width:0.01;stroke-linecap:butt;stroke-linejoin:miter;stroke-miterlimit:4;stroke-dasharray:none;stroke-opacity:1" /><path
     style="display:inline;fill:none;fill-opacity:1;stroke:#ff0000;stroke-width:0.01;stroke-linecap:butt;stroke-linejoin:miter;stroke-miterlimit:4;stroke-dasharray:none;stroke-opacity:1"
     d="m 269.08495,156.26285 v 7 h 71 v -7 z"
     id="path904"
     inkscape:connector-curvature="0"
     sodipodi:nodetypes="ccccc" /><path
     sodipodi:nodetypes="ccccc"
     inkscape:connector-curvature="0"
     id="path907"
     d="m 234.11855,192.799 v 7 h 71 v -7 z"
     style="display:inline;fill:none;fill-opacity:1;stroke:#ff0000;stroke-width:0.01;stroke-linecap:butt;stroke-linejoin:miter;stroke-miterlimit:4;stroke-dasharray:none;stroke-opacity:1" /><path
     sodipodi:nodetypes="cccccccccccccccccccccc"
     inkscape:connector-curvature="0"
     id="path909"
     d="m 139.45193,244.90582 v -20.00009 h -4.99995 v -20 h 4.99995 V 184.79747 L 309.45042,14.905727 h 169.9985 l 8e-5,19.999999 h 4.99987 V 64.905727 H 479.449 v 50.000003 h 4.99987 l 1.3e-4,30 h -5 v 50 h 4.99987 v 30 h -4.99995 v 20.00009 z"
     style="fill:none;stroke:#ff0000;stroke-width:0.01;stroke-linecap:butt;stroke-linejoin:miter;stroke-miterlimit:4;stroke-dasharray:none;stroke-opacity:1" /><path
     style="fill:none;fill-opacity:1;stroke:#ff0000;stroke-width:0.01;stroke-linecap:butt;stroke-linejoin:miter;stroke-miterlimit:4;stroke-dasharray:none;stroke-opacity:1"
     d="m 363.01518,60.567097 v -20 h -62 v 20 h 3.49934 v -2 h 2 l 0.05,1.95129 8.45066,8.04871 h 34 l 8.50034,-8 v -2 h 2 v 2 z"
     id="path911"
     inkscape:connector-curvature="0"
     sodipodi:nodetypes="ccccccccccccccc" /><path
     sodipodi:nodetypes="ccccccccccccccc"
     inkscape:connector-curvature="0"
     id="path913"
     d="m 219.05473,207.33655 v -20 h -62 v 20 h 3.49934 v -2 h 2 l 0.05,1.95129 8.45066,8.04871 h 34 l 8.50034,-8 v -2 h 2 v 2 z"
     style="fill:none;fill-opacity:1;stroke:#ff0000;stroke-width:0.01;stroke-linecap:butt;stroke-linejoin:miter;stroke-miterlimit:4;stroke-dasharray:none;stroke-opacity:1" /><path
     style="fill:none;fill-opacity:1;stroke:#ff0000;stroke-width:0.01;stroke-linecap:butt;stroke-linejoin:miter;stroke-miterlimit:4;stroke-dasharray:none;stroke-opacity:1"
     d="m 255.04484,170.64419 v -20 h -62 v 20 h 3.49934 v -2 h 2 l 0.05,1.95129 8.45066,8.04871 h 34 l 8.50034,-8 v -2 h 2 v 2 z"
     id="path915"
     inkscape:connector-curvature="0"
     sodipodi:nodetypes="ccccccccccccccc" /><path
     sodipodi:nodetypes="ccccccccccccccc"
     inkscape:connector-curvature="0"
     id="path917"
     d="m 291.03496,133.95184 v -20 h -62 v 20 h 3.49934 v -2 h 2 l 0.05,1.95129 8.45066,8.04871 h 34 l 8.50034,-8 v -2 h 2 v 2 z"
     style="fill:none;fill-opacity:1;stroke:#ff0000;stroke-width:0.01;stroke-linecap:butt;stroke-linejoin:miter;stroke-miterlimit:4;stroke-dasharray:none;stroke-opacity:1" /><path
     style="fill:none;fill-opacity:1;stroke:#ff0000;stroke-width:0.01;stroke-linecap:butt;stroke-linejoin:miter;stroke-miterlimit:4;stroke-dasharray:none;stroke-opacity:1"
     d="m 327.02508,97.259467 v -20 h -62 v 20 h 3.49934 v -2 h 2 l 0.05,1.95129 8.45066,8.048713 h 34 l 8.50034,-8.000003 v -2 h 2 v 2 z"
     id="path919"
     inkscape:connector-curvature="0"
     sodipodi:nodetypes="ccccccccccccccc" /></svg>