<?xml version="1.0" encoding="UTF-8" standalone="no"?>
<!-- Generator: Adobe Illustrator 15.0.0, SVG Export Plug-In . SVG Version: 6.00 Build 0)  -->

<svg
   xmlns:dc="http://purl.org/dc/elements/1.1/"
   xmlns:cc="http://creativecommons.org/ns#"
   xmlns:rdf="http://www.w3.org/1999/02/22-rdf-syntax-ns#"
   xmlns:svg="http://www.w3.org/2000/svg"
   xmlns="http://www.w3.org/2000/svg"
   xmlns:xlink="http://www.w3.org/1999/xlink"
   xmlns:sodipodi="http://sodipodi.sourceforge.net/DTD/sodipodi-0.dtd"
   xmlns:inkscape="http://www.inkscape.org/namespaces/inkscape"
   version="1.1"
   x="0px"
   y="0px"
   width="24in"
   height="36in"
   viewBox="0 0 609.6 914.39999"
   enable-background="new 0 0 1417.322 1417.323"
   xml:space="preserve"
   id="svg12625"
   sodipodi:docname="Clear acrylic 0.0625in 500mmx500mm INNER_HOLDERS.svg"
   inkscape:version="0.92.2 5c3e80d, 2017-08-06"><metadata
     id="metadata12631"><rdf:RDF><cc:Work
         rdf:about=""><dc:format>image/svg+xml</dc:format><dc:type
           rdf:resource="http://purl.org/dc/dcmitype/StillImage" /><dc:title></dc:title></cc:Work></rdf:RDF></metadata><defs
     id="defs12629"><color-profile
       name="Adobe-RGB--1998-"
       xlink:href="/System/Library/ColorSync/Profiles/AdobeRGB1998.icc"
       id="color-profile4" /></defs><sodipodi:namedview
     pagecolor="#ffffff"
     bordercolor="#666666"
     borderopacity="1"
     objecttolerance="10"
     gridtolerance="10"
     guidetolerance="10"
     inkscape:pageopacity="0"
     inkscape:pageshadow="2"
     inkscape:window-width="1680"
     inkscape:window-height="1006"
     id="namedview12627"
     showgrid="false"
     inkscape:measure-start="320.878,1329.74"
     inkscape:measure-end="759.089,1332.39"
     inkscape:zoom="0.37676726"
     inkscape:cx="1204.9144"
     inkscape:cy="874.48878"
     inkscape:window-x="-1"
     inkscape:window-y="0"
     inkscape:window-maximized="0"
     inkscape:current-layer="svg12625"
     units="in"
     inkscape:document-units="mm" /><g
     id="Your_drawing"
     transform="translate(0,886.84087)" /><path
     style="display:inline;fill:none;fill-opacity:1;stroke:#ff0000;stroke-width:0.01024326;stroke-miterlimit:4;stroke-dasharray:none;stroke-opacity:1"
     d="M 322.10134,697.63476 H 349.0911 V 857.62451 H 322.10134 Z"
     id="path906"
     inkscape:connector-curvature="0" /><path
     style="display:inline;fill:none;fill-opacity:1;stroke:#ff0000;stroke-width:0.01029628;stroke-miterlimit:4;stroke-dasharray:none;stroke-opacity:1"
     d="m 276.63078,786.09988 h 27.9897 v 70.9897 h -27.9897 z"
     id="path908"
     inkscape:connector-curvature="0" /><path
     style="display:inline;fill:none;fill-opacity:1;stroke:#ff0000;stroke-width:0.01;stroke-linecap:butt;stroke-linejoin:miter;stroke-miterlimit:4;stroke-dasharray:none;stroke-opacity:1"
     d="m 265.83823,680.52078 v 7 h 71 v -7 z"
     id="path910"
     inkscape:connector-curvature="0"
     sodipodi:nodetypes="ccccc" /><path
     sodipodi:nodetypes="ccccc"
     inkscape:connector-curvature="0"
     id="path912"
     d="m 230.87182,717.0569 v 7 h 71 v -7 z"
     style="display:inline;fill:none;fill-opacity:1;stroke:#ff0000;stroke-width:0.01;stroke-linecap:butt;stroke-linejoin:miter;stroke-miterlimit:4;stroke-dasharray:none;stroke-opacity:1" /><path
     style="display:inline;fill:none;fill-opacity:1;stroke:#ff0000;stroke-width:0.01;stroke-linecap:butt;stroke-linejoin:miter;stroke-miterlimit:4;stroke-dasharray:none;stroke-opacity:1"
     d="m 195.90543,753.59308 v 7 h 71 v -7 z"
     id="path914"
     inkscape:connector-curvature="0"
     sodipodi:nodetypes="ccccc" /><path
     sodipodi:nodetypes="ccccc"
     inkscape:connector-curvature="0"
     id="path916"
     d="m 160.93905,790.12924 v 7 h 71 v -7 z"
     style="display:inline;fill:none;fill-opacity:1;stroke:#ff0000;stroke-width:0.01;stroke-linecap:butt;stroke-linejoin:miter;stroke-miterlimit:4;stroke-dasharray:none;stroke-opacity:1" /><path
     style="display:inline;fill:none;fill-opacity:1;stroke:#ff0000;stroke-width:0.01;stroke-linecap:butt;stroke-linejoin:miter;stroke-miterlimit:4;stroke-dasharray:none;stroke-opacity:1"
     d="m 125.97265,826.66539 v 7 h 71 v -7 z"
     id="path918"
     inkscape:connector-curvature="0"
     sodipodi:nodetypes="ccccc" /><path
     style="fill:none;stroke:#ff0000;stroke-width:0.01;stroke-linecap:butt;stroke-linejoin:miter;stroke-miterlimit:4;stroke-dasharray:none;stroke-opacity:1"
     d="m 31.306033,878.77221 v -20.00009 h -4.99995 v -20 h 4.99995 V 818.66386 L 201.30452,648.77212 h 169.9985 l 8e-5,20 h 4.99987 v 30 h -4.99987 v 50 h 4.99987 l 1.3e-4,30 h -5 v 50 h 4.99987 v 30 h -4.99995 v 20.00009 z"
     id="path920"
     inkscape:connector-curvature="0"
     sodipodi:nodetypes="cccccccccccccccccccccc" /><path
     sodipodi:nodetypes="ccccccccccccccc"
     inkscape:connector-curvature="0"
     id="path922"
     d="m 254.86928,694.43349 v -20 h -62 v 20 h 3.49934 v -2 h 2 l 0.05,1.95129 8.45066,8.04871 h 34 l 8.50034,-8 v -2 h 2 v 2 z"
     style="fill:none;fill-opacity:1;stroke:#ff0000;stroke-width:0.01;stroke-linecap:butt;stroke-linejoin:miter;stroke-miterlimit:4;stroke-dasharray:none;stroke-opacity:1" /><path
     style="fill:none;fill-opacity:1;stroke:#ff0000;stroke-width:0.01;stroke-linecap:butt;stroke-linejoin:miter;stroke-miterlimit:4;stroke-dasharray:none;stroke-opacity:1"
     d="m 110.90883,841.20294 v -20 H 48.908833 v 20 h 3.49934 v -2 h 2 l 0.05,1.95129 8.45066,8.04871 h 34 l 8.500337,-8 v -2 h 2 v 2 z"
     id="path886"
     inkscape:connector-curvature="0"
     sodipodi:nodetypes="ccccccccccccccc" /><path
     sodipodi:nodetypes="ccccccccccccccc"
     inkscape:connector-curvature="0"
     id="path888"
     d="m 146.89894,804.51058 v -20 H 84.898943 v 20 h 3.49934 v -2 h 2 l 0.05,1.95129 8.45066,8.04871 h 33.999997 l 8.50034,-8 v -2 h 2 v 2 z"
     style="fill:none;fill-opacity:1;stroke:#ff0000;stroke-width:0.01;stroke-linecap:butt;stroke-linejoin:miter;stroke-miterlimit:4;stroke-dasharray:none;stroke-opacity:1" /><path
     style="fill:none;fill-opacity:1;stroke:#ff0000;stroke-width:0.01;stroke-linecap:butt;stroke-linejoin:miter;stroke-miterlimit:4;stroke-dasharray:none;stroke-opacity:1"
     d="m 182.88906,767.81823 v -20 h -62 v 20 h 3.49934 v -2 h 2 l 0.05,1.95129 8.45066,8.04871 h 34 l 8.50034,-8 v -2 h 2 v 2 z"
     id="path890"
     inkscape:connector-curvature="0"
     sodipodi:nodetypes="ccccccccccccccc" /><path
     sodipodi:nodetypes="ccccccccccccccc"
     inkscape:connector-curvature="0"
     id="path892"
     d="m 218.87918,731.12586 v -20 h -62 v 20 h 3.49934 v -2 h 2 l 0.05,1.95129 8.45066,8.04871 h 34 l 8.50034,-8 v -2 h 2 v 2 z"
     style="fill:none;fill-opacity:1;stroke:#ff0000;stroke-width:0.01;stroke-linecap:butt;stroke-linejoin:miter;stroke-miterlimit:4;stroke-dasharray:none;stroke-opacity:1" /><path
     inkscape:connector-curvature="0"
     id="path894"
     d="M 322.10134,455.69649 H 349.0911 V 615.68625 H 322.10134 Z"
     style="display:inline;fill:none;fill-opacity:1;stroke:#ff0000;stroke-width:0.01024326;stroke-miterlimit:4;stroke-dasharray:none;stroke-opacity:1" /><path
     inkscape:connector-curvature="0"
     id="path896"
     d="m 276.63078,544.16161 h 27.9897 v 70.9897 h -27.9897 z"
     style="display:inline;fill:none;fill-opacity:1;stroke:#ff0000;stroke-width:0.01029628;stroke-miterlimit:4;stroke-dasharray:none;stroke-opacity:1" /><path
     sodipodi:nodetypes="ccccc"
     inkscape:connector-curvature="0"
     id="path898"
     d="m 265.83823,438.58251 v 7 h 71 v -7 z"
     style="display:inline;fill:none;fill-opacity:1;stroke:#ff0000;stroke-width:0.01;stroke-linecap:butt;stroke-linejoin:miter;stroke-miterlimit:4;stroke-dasharray:none;stroke-opacity:1" /><path
     style="display:inline;fill:none;fill-opacity:1;stroke:#ff0000;stroke-width:0.01;stroke-linecap:butt;stroke-linejoin:miter;stroke-miterlimit:4;stroke-dasharray:none;stroke-opacity:1"
     d="m 230.87182,475.11863 v 7 h 71 v -7 z"
     id="path900"
     inkscape:connector-curvature="0"
     sodipodi:nodetypes="ccccc" /><path
     sodipodi:nodetypes="ccccc"
     inkscape:connector-curvature="0"
     id="path902"
     d="m 195.90543,511.65481 v 7 h 71 v -7 z"
     style="display:inline;fill:none;fill-opacity:1;stroke:#ff0000;stroke-width:0.01;stroke-linecap:butt;stroke-linejoin:miter;stroke-miterlimit:4;stroke-dasharray:none;stroke-opacity:1" /><path
     style="display:inline;fill:none;fill-opacity:1;stroke:#ff0000;stroke-width:0.01;stroke-linecap:butt;stroke-linejoin:miter;stroke-miterlimit:4;stroke-dasharray:none;stroke-opacity:1"
     d="m 160.93905,548.19097 v 7 h 71 v -7 z"
     id="path904"
     inkscape:connector-curvature="0"
     sodipodi:nodetypes="ccccc" /><path
     sodipodi:nodetypes="ccccc"
     inkscape:connector-curvature="0"
     id="path907"
     d="m 125.97265,584.72712 v 7 h 71 v -7 z"
     style="display:inline;fill:none;fill-opacity:1;stroke:#ff0000;stroke-width:0.01;stroke-linecap:butt;stroke-linejoin:miter;stroke-miterlimit:4;stroke-dasharray:none;stroke-opacity:1" /><path
     sodipodi:nodetypes="cccccccccccccccccccccc"
     inkscape:connector-curvature="0"
     id="path909"
     d="m 31.306033,636.83395 v -20.00009 h -4.99995 v -20 h 4.99995 V 576.7256 L 201.30452,406.83385 h 169.9985 l 8e-5,20 h 4.99987 v 30 h -4.99987 v 50.00001 h 4.99987 l 1.3e-4,30 h -5 v 50 h 4.99987 v 30 h -4.99995 v 20.00009 z"
     style="fill:none;stroke:#ff0000;stroke-width:0.01;stroke-linecap:butt;stroke-linejoin:miter;stroke-miterlimit:4;stroke-dasharray:none;stroke-opacity:1" /><path
     style="fill:none;fill-opacity:1;stroke:#ff0000;stroke-width:0.01;stroke-linecap:butt;stroke-linejoin:miter;stroke-miterlimit:4;stroke-dasharray:none;stroke-opacity:1"
     d="m 254.86928,452.49522 v -20 h -62 v 20 h 3.49934 v -2 h 2 l 0.05,1.95129 8.45066,8.04871 h 34 l 8.50034,-8 v -2 h 2 v 2 z"
     id="path911"
     inkscape:connector-curvature="0"
     sodipodi:nodetypes="ccccccccccccccc" /><path
     sodipodi:nodetypes="ccccccccccccccc"
     inkscape:connector-curvature="0"
     id="path913"
     d="m 110.90883,599.26467 v -20 H 48.908833 v 20 h 3.49934 v -2 h 2 l 0.05,1.95129 8.45066,8.04871 h 34 l 8.500337,-8 v -2 h 2 v 2 z"
     style="fill:none;fill-opacity:1;stroke:#ff0000;stroke-width:0.01;stroke-linecap:butt;stroke-linejoin:miter;stroke-miterlimit:4;stroke-dasharray:none;stroke-opacity:1" /><path
     style="fill:none;fill-opacity:1;stroke:#ff0000;stroke-width:0.01;stroke-linecap:butt;stroke-linejoin:miter;stroke-miterlimit:4;stroke-dasharray:none;stroke-opacity:1"
     d="m 146.89894,562.57231 v -20 H 84.898943 v 20 h 3.49934 v -2 h 2 l 0.05,1.95129 8.45066,8.04871 h 33.999997 l 8.50034,-8 v -2 h 2 v 2 z"
     id="path915"
     inkscape:connector-curvature="0"
     sodipodi:nodetypes="ccccccccccccccc" /><path
     sodipodi:nodetypes="ccccccccccccccc"
     inkscape:connector-curvature="0"
     id="path917"
     d="m 182.88906,525.87996 v -20 h -62 v 20 h 3.49934 v -2 h 2 l 0.05,1.95129 8.45066,8.04871 h 34 l 8.50034,-8 v -2 h 2 v 2 z"
     style="fill:none;fill-opacity:1;stroke:#ff0000;stroke-width:0.01;stroke-linecap:butt;stroke-linejoin:miter;stroke-miterlimit:4;stroke-dasharray:none;stroke-opacity:1" /><path
     style="fill:none;fill-opacity:1;stroke:#ff0000;stroke-width:0.01;stroke-linecap:butt;stroke-linejoin:miter;stroke-miterlimit:4;stroke-dasharray:none;stroke-opacity:1"
     d="m 218.87918,489.18759 v -20 h -62 v 20 h 3.49934 v -2 h 2 l 0.05,1.95129 8.45066,8.04872 h 34 l 8.50034,-8.00001 v -2 h 2 v 2 z"
     id="path919"
     inkscape:connector-curvature="0"
     sodipodi:nodetypes="ccccccccccccccc" /></svg>